<svg width="35" height="33" viewBox="0 0 35 33" fill="none" xmlns="http://www.w3.org/2000/svg">
<path d="M29.2496 4.90151C26.1272 1.82062 21.9691 0.126129 17.5501 0.126129C8.42897 0.126129 1.00688 7.43225 1.00688 16.4108C1.00688 19.279 1.76697 22.0812 3.21264 24.5532L0.865295 32.989L9.63617 30.7223C12.0506 32.0207 14.7705 32.7029 17.5426 32.7029H17.5501C26.6638 32.7029 34.2498 25.3968 34.2498 16.4182C34.2498 12.0683 32.3719 7.98241 29.2496 4.90151ZM17.5501 29.9594C15.0761 29.9594 12.6542 29.3066 10.5453 28.0742L10.046 27.7808L4.84461 29.1232L6.23066 24.1278L5.90278 23.6143C4.52418 21.4576 3.80134 18.9709 3.80134 16.4108C3.80134 8.95069 9.97151 2.87693 17.5575 2.87693C21.2313 2.87693 24.6815 4.28533 27.2748 6.84541C29.8681 9.40548 31.4628 12.8018 31.4553 16.4182C31.4553 23.8857 25.1287 29.9594 17.5501 29.9594ZM25.0914 19.8218C24.6815 19.6164 22.6472 18.6335 22.2671 18.5015C21.8871 18.3621 21.6114 18.2961 21.3356 18.7068C21.0599 19.1176 20.27 20.0272 20.0241 20.306C19.7857 20.5774 19.5397 20.6141 19.1299 20.4087C16.7006 19.213 15.1059 18.2741 13.5037 15.5673C13.0789 14.8484 13.9285 14.8997 14.7184 13.3446C14.8525 13.0732 14.7854 12.8385 14.6811 12.6331C14.5768 12.4277 13.7496 10.4251 13.4068 9.61088C13.0715 8.81865 12.7287 8.92868 12.4753 8.91401C12.2369 8.89934 11.9612 8.89934 11.6854 8.89934C11.4097 8.89934 10.9626 9.00203 10.5826 9.40548C10.2025 9.81627 9.1369 10.7992 9.1369 12.8018C9.1369 14.8044 10.6198 16.7409 10.821 17.0124C11.0297 17.2838 13.7347 21.3916 17.8854 23.1595C20.5085 24.2745 21.5368 24.3698 22.8484 24.1791C23.6457 24.0617 25.2926 23.1961 25.6354 22.2425C25.9782 21.2889 25.9782 20.4747 25.8739 20.306C25.777 20.1226 25.5013 20.0199 25.0914 19.8218Z" fill="white"/>
</svg>
